<svg width="171" height="171" viewBox="0 0 171 171" fill="none" xmlns="http://www.w3.org/2000/svg">
<path d="M85.0851 169.063C85.0851 169.674 85.5814 170.171 86.1929 170.163C106.533 169.898 126.12 162.353 141.39 148.876C156.936 135.154 166.936 116.227 169.511 95.6515C172.087 75.076 167.059 54.2683 155.374 37.1382C143.689 20.0081 126.151 7.73481 106.054 2.62447C85.9576 -2.48587 64.6867 -0.0814648 46.2381 9.38589C27.7895 18.8533 13.4332 34.7318 5.86674 54.0381C-1.69971 73.3443 -1.95546 94.7492 5.14758 114.231C12.124 133.365 25.7276 149.35 43.4707 159.299C44.0042 159.598 44.6774 159.399 44.9696 158.862C45.2617 158.325 45.0622 157.653 44.5288 157.353C27.2598 147.662 14.0199 132.099 7.22833 113.472C0.310192 94.4976 0.559277 73.6499 7.92878 54.8462C15.2983 36.0425 29.2809 20.5773 47.2493 11.3563C65.2177 2.13541 85.9349 -0.206406 105.508 4.77091C125.082 9.74823 142.164 21.7021 153.545 38.3863C164.925 55.0704 169.822 75.3365 167.314 95.3764C164.806 115.416 155.066 133.851 139.924 147.215C125.059 160.336 105.993 167.684 86.1929 167.948C85.5814 167.956 85.0851 168.451 85.0851 169.063Z" fill="#288EFF"/>
<path d="M156.974 85.0851C157.498 85.0851 157.923 84.6602 157.916 84.1367C157.679 65.8858 150.595 48.3751 138.05 35.0857C125.288 21.5663 107.838 13.439 89.2773 12.3689C70.7162 11.2989 52.4486 17.3671 38.217 29.3303C24.2276 41.09 15.1791 57.6706 12.8458 75.7733C12.7789 76.2926 13.1523 76.7636 13.6724 76.8237C14.1925 76.8839 14.6623 76.5105 14.7294 75.9913C17.0069 58.3693 25.818 42.2299 39.437 30.7816C53.2981 19.1298 71.0902 13.2195 89.1681 14.2617C107.246 15.3039 124.241 23.2197 136.671 36.3872C148.885 49.3247 155.783 66.3697 156.02 84.1367C156.027 84.6602 156.451 85.0851 156.974 85.0851Z" fill="#288EFF"/>
</svg>
