<svg width="77" height="77" viewBox="0 0 77 77" fill="none" xmlns="http://www.w3.org/2000/svg">
<path d="M34.5666 49.4626L27.5005 56.5287C26.0109 58.0183 23.6428 58.0183 22.115 56.5669C21.6949 56.1468 21.2747 55.7648 20.8546 55.3447C16.9205 51.3724 13.3683 47.2091 10.1982 42.8549C7.06615 38.5007 4.54528 34.1464 2.71191 29.8304C0.916743 25.4761 6.10352e-05 21.3129 6.10352e-05 17.3406C6.10352e-05 14.7433 0.458402 12.2606 1.37508 9.96892C2.29177 7.63902 3.74318 5.50009 5.76752 3.59034C8.21201 1.18405 10.8857 0 13.7121 0C14.7816 0 15.851 0.229171 16.8059 0.687512C17.799 1.14585 18.6775 1.83336 19.365 2.82644L28.2262 15.3162C28.9137 16.2711 29.4103 17.1496 29.754 17.9899C30.0978 18.792 30.2888 19.5941 30.2888 20.3198C30.2888 21.2365 30.0214 22.1532 29.4867 23.0316C28.9901 23.9101 28.2644 24.8268 27.3477 25.7435L24.4449 28.7609C24.0248 29.181 23.8338 29.6776 23.8338 30.2887C23.8338 30.5943 23.872 30.8616 23.9484 31.1672C24.063 31.4728 24.1776 31.7019 24.2539 31.9311C24.9415 33.1915 26.1255 34.8339 27.8061 36.8201C29.5249 38.8062 31.3582 40.8306 33.3444 42.8549C33.7263 43.2368 34.1465 43.6188 34.5284 44.0007C36.0562 45.4904 36.0944 47.9348 34.5666 49.4626Z" fill="#288EFF"/>
<path d="M76.2761 62.3681C76.2761 63.4376 76.0851 64.5452 75.7031 65.6147C75.5886 65.9203 75.474 66.2258 75.3212 66.5314C74.6719 67.9064 73.8316 69.205 72.7239 70.4273C70.8524 72.4898 68.7898 73.9794 66.4599 74.9343C66.4217 74.9343 66.3835 74.9725 66.3453 74.9725C64.0918 75.8892 61.6473 76.3857 59.0119 76.3857C55.116 76.3857 50.9527 75.469 46.5603 73.5975C42.1678 71.7259 37.7754 69.205 33.4212 66.0348C31.9316 64.9272 30.442 63.8195 29.0287 62.6355L41.5185 50.1457C42.588 50.9478 43.5429 51.5589 44.345 51.9791C44.5359 52.0554 44.7651 52.17 45.0325 52.2846C45.338 52.3992 45.6436 52.4374 45.9874 52.4374C46.6367 52.4374 47.1332 52.2082 47.5534 51.7881L50.4562 48.9234C51.4111 47.9686 52.3277 47.2429 53.2062 46.7845C54.0847 46.2498 54.9632 45.9824 55.9181 45.9824C56.6438 45.9824 57.4077 46.1352 58.248 46.479C59.0883 46.8227 59.9668 47.3193 60.9216 47.9686L73.5642 56.9444C74.5573 57.6319 75.2448 58.434 75.6649 59.3889C76.0469 60.3438 76.2761 61.2987 76.2761 62.3681Z" fill="#288EFF"/>
</svg>
