<svg width="151" height="151" viewBox="0 0 151 151" fill="none" xmlns="http://www.w3.org/2000/svg">
<circle cx="75.5" cy="75.5" r="71.5" stroke="#288EFF" stroke-width="8"/>
<g clip-path="url(#clip0_100_7)">
<mask id="mask0_100_7" style="mask-type:luminance" maskUnits="userSpaceOnUse" x="37" y="38" width="77" height="75">
<path d="M114 38H37V113H114V38Z" fill="white"/>
</mask>
<g mask="url(#mask0_100_7)">
<path d="M72.7088 87.6279C71.9067 87.6279 71.1046 87.2217 70.6554 86.5029C69.9817 85.4092 70.3346 83.9404 71.4896 83.2842L74.345 81.6279V78.2529C74.345 76.9717 75.4359 75.9092 76.7513 75.9092C78.0667 75.9092 79.1575 76.9717 79.1575 78.2529V82.9404C79.1575 83.7529 78.7084 84.5342 78.0025 84.9404L73.9921 87.2842C73.5429 87.5029 73.1259 87.6279 72.7088 87.6279Z" fill="#288EFF"/>
<path d="M104.664 59.811C101.937 56.8735 97.4129 55.4048 90.7717 55.4048H90.0017V55.2798C90.0017 50.0298 90.0017 43.5298 77.9383 43.5298H73.0617C60.9985 43.5298 60.9985 50.0298 60.9985 55.2798V55.4048H60.2285C53.5872 55.4048 49.0314 56.8735 46.3364 59.811C43.1601 63.2798 43.2564 67.8735 43.5772 71.0297L43.6093 71.2484L43.8309 73.7672C43.8733 74.2481 44.1413 74.6834 44.5575 74.9459C45.4677 75.5197 46.436 76.1219 47.3631 76.6234C47.8122 76.9047 48.2935 77.1547 48.7747 77.4047C52.4001 79.3422 56.2822 80.8734 60.2606 81.9359C60.3568 90.0297 67.1585 96.5922 75.5 96.5922C83.9058 96.5922 90.7396 89.9359 90.7396 81.7484V81.6234C94.7821 80.4359 98.6642 78.7797 102.29 76.7172C102.482 76.6234 102.61 76.5297 102.771 76.4359C104.038 75.7653 105.352 74.8875 106.551 74.0594C106.923 73.8025 107.163 73.4025 107.213 72.9613L107.263 72.5297L107.423 71.0609C107.455 70.8734 107.455 70.7172 107.487 70.4984C107.744 67.3735 107.68 63.061 104.664 59.811ZM65.5864 55.2798C65.5864 49.9673 65.5864 47.9673 73.0617 47.9673H77.9383C85.4138 47.9673 85.4138 49.9673 85.4138 55.2798V55.4048H65.5864V55.2798ZM75.5 91.9047C70.2063 91.9047 65.811 88.0297 65.1693 83.0297C65.1051 82.6234 65.0731 82.1859 65.0731 81.7484C65.0731 76.1547 69.7571 71.5922 75.5 71.5922C81.2429 71.5922 85.9271 76.1547 85.9271 81.7484C85.9271 82.1234 85.895 82.4672 85.8629 82.8109V82.8422C85.2854 87.9359 80.8579 91.9047 75.5 91.9047Z" fill="#288EFF"/>
<path d="M104.504 80.9035C105.302 80.472 106.337 81.0976 106.254 81.9829L105.113 94.1223C104.44 100.372 101.809 106.747 87.692 106.747H63.2445C49.1279 106.747 46.497 100.372 45.8554 94.1535L44.7457 82.5807C44.6595 81.6823 45.6461 81.0751 46.4649 81.4973C48.9674 82.841 51.5662 84.0285 54.2291 84.966C55.2237 85.3098 55.9295 86.1223 56.2183 87.1223C58.6245 95.2473 66.3887 101.279 75.5004 101.279C84.7724 101.279 92.6008 95.1223 94.8787 86.6848C95.1354 85.6848 95.8412 84.8723 96.8358 84.4973C99.5308 83.466 102.097 82.2473 104.504 80.9035Z" fill="#288EFF"/>
</g>
</g>
<defs>
<clipPath id="clip0_100_7">
<rect width="77" height="75" fill="white" transform="translate(37 38)"/>
</clipPath>
</defs>
</svg>
