<svg width="93" height="93" viewBox="0 0 93 93" fill="none" xmlns="http://www.w3.org/2000/svg">
<circle cx="46.5" cy="46.5" r="44" stroke="#288EFF" stroke-width="5"/>
<g clip-path="url(#clip0_100_3)">
<mask id="mask0_100_3" style="mask-type:luminance" maskUnits="userSpaceOnUse" x="26" y="26" width="41" height="41">
<path d="M67 26H26V67H67V26Z" fill="white"/>
</mask>
<g mask="url(#mask0_100_3)">
<path d="M32.8333 49.0627V58.2877C32.8333 61.1918 35.2079 63.5835 38.1292 63.5835H54.8708C57.775 63.5835 60.1667 61.2089 60.1667 58.2877V49.0627C60.1667 48.5843 59.7908 48.2085 59.3125 48.2085H33.6875C33.2092 48.2085 32.8333 48.5843 32.8333 49.0627ZM41.17 57.3993C40.7771 57.8093 40.2304 58.0314 39.6667 58.0314C39.53 58.0314 39.3933 58.0143 39.2567 57.9972C39.12 57.9631 38.9833 57.9289 38.8467 57.8606C38.7271 57.8093 38.5904 57.741 38.4879 57.6727C38.3683 57.5872 38.2488 57.5018 38.1633 57.3993C37.7533 57.0064 37.5313 56.4597 37.5313 55.896C37.5313 55.3322 37.7533 54.7856 38.1633 54.3927C38.2488 54.2902 38.3683 54.2047 38.4879 54.1193C38.5904 54.051 38.7271 53.9827 38.8467 53.9314C38.9833 53.8631 39.12 53.8289 39.2567 53.7947C39.94 53.6581 40.6746 53.8972 41.17 54.3927C41.58 54.7856 41.8021 55.3322 41.8021 55.896C41.8021 56.4597 41.58 57.0064 41.17 57.3993ZM54.8367 57.3993C54.7513 57.5018 54.6317 57.5872 54.5121 57.6727C54.4096 57.741 54.2729 57.8093 54.1533 57.8606C54.0167 57.9289 53.88 57.9631 53.7604 57.9972C53.6067 58.0143 53.47 58.0314 53.3333 58.0314C53.1967 58.0314 53.06 58.0143 52.9233 57.9972C52.7867 57.9631 52.65 57.9289 52.5133 57.8606C52.3938 57.8093 52.2571 57.741 52.1546 57.6727C52.035 57.5872 51.9154 57.5018 51.83 57.3993C51.42 57.0064 51.1979 56.4597 51.1979 55.896C51.1979 55.3322 51.42 54.7856 51.83 54.3927C51.9154 54.2902 52.035 54.2047 52.1546 54.1193C52.2571 54.051 52.3938 53.9827 52.5133 53.9314C52.65 53.8631 52.7867 53.8289 52.9233 53.7947C53.1967 53.7435 53.47 53.7435 53.7604 53.7947C53.88 53.8289 54.0167 53.8631 54.1533 53.9314C54.2729 53.9827 54.4096 54.051 54.5121 54.1193C54.6317 54.2047 54.7513 54.2902 54.8367 54.3927C55.2467 54.7856 55.4688 55.3322 55.4688 55.896C55.4688 56.4597 55.2467 57.0064 54.8367 57.3993Z" fill="#288EFF"/>
<path d="M54.8708 29.4167H38.1292C35.2079 29.4167 32.8333 31.7913 32.8333 34.7126V38.8126C32.8333 39.2909 33.2092 39.6667 33.6875 39.6667H59.3125C59.7908 39.6667 60.1667 39.2909 60.1667 38.8126V34.7126C60.1667 31.7913 57.7921 29.4167 54.8708 29.4167ZM50.7708 35.823H42.2292C41.5288 35.823 40.9479 35.2422 40.9479 34.5417C40.9479 33.8413 41.5288 33.2605 42.2292 33.2605H50.7708C51.4713 33.2605 52.0521 33.8413 52.0521 34.5417C52.0521 35.2422 51.4713 35.823 50.7708 35.823Z" fill="#288EFF"/>
<path d="M59.3125 46.5H33.6875C33.2092 46.5 32.8333 46.1242 32.8333 45.6458V42.2292C32.8333 41.7508 33.2092 41.375 33.6875 41.375H59.3125C59.7908 41.375 60.1667 41.7508 60.1667 42.2292V45.6458C60.1667 46.1242 59.7908 46.5 59.3125 46.5Z" fill="#288EFF"/>
</g>
</g>
<defs>
<clipPath id="clip0_100_3">
<rect width="41" height="41" fill="white" transform="translate(26 26)"/>
</clipPath>
</defs>
</svg>
