<svg width="122" height="122" viewBox="0 0 122 122" fill="none" xmlns="http://www.w3.org/2000/svg">
<circle cx="61" cy="61" r="58.5" stroke="#288EFF" stroke-width="5"/>
<g clip-path="url(#clip0_100_9)">
<mask id="mask0_100_9" style="mask-type:luminance" maskUnits="userSpaceOnUse" x="30" y="30" width="61" height="61">
<path d="M91 30H30V91H91V30Z" fill="white"/>
</mask>
<g mask="url(#mask0_100_9)">
<path d="M79.5877 44.8687L64.4902 36.1508C62.0248 34.7274 58.9748 34.7274 56.484 36.1508L41.4119 44.8687C38.9465 46.292 37.4215 48.9353 37.4215 51.8074V69.1924C37.4215 72.0391 38.9465 74.6824 41.4119 76.1312L56.5094 84.8491C58.9748 86.2724 62.0248 86.2724 64.5156 84.8491L79.6131 76.1312C82.0785 74.7078 83.6035 72.0645 83.6035 69.1924V51.8074C83.5781 48.9353 82.0531 46.3174 79.5877 44.8687ZM60.4998 48.6558C63.7785 48.6558 66.4219 51.2991 66.4219 54.5778C66.4219 57.8566 63.7785 60.4999 60.4998 60.4999C57.221 60.4999 54.5778 57.8566 54.5778 54.5778C54.5778 51.3245 57.221 48.6558 60.4998 48.6558ZM67.3115 72.3441H53.6882C51.6294 72.3441 50.4348 70.0566 51.5786 68.3537C53.3069 65.7866 56.6619 64.0583 60.4998 64.0583C64.3377 64.0583 67.6927 65.7866 69.421 68.3537C70.5648 70.0312 69.3448 72.3441 67.3115 72.3441Z" fill="#288EFF"/>
</g>
</g>
<defs>
<clipPath id="clip0_100_9">
<rect width="61" height="61" fill="white" transform="translate(30 30)"/>
</clipPath>
</defs>
</svg>
