<svg width="122" height="122" viewBox="0 0 122 122" fill="none" xmlns="http://www.w3.org/2000/svg">
<circle cx="61" cy="61" r="58.5" stroke="#288EFF" stroke-width="5"/>
<g clip-path="url(#clip0_100_6)">
<mask id="mask0_100_6" style="mask-type:luminance" maskUnits="userSpaceOnUse" x="30" y="30" width="61" height="61">
<path d="M91 30H30V91H91V30Z" fill="white"/>
</mask>
<g mask="url(#mask0_100_6)">
<path d="M72.7765 69.7521C74.4794 68.6337 76.7161 69.8537 76.7161 71.8871V75.1658C76.7161 78.3937 74.1999 81.8504 71.1753 82.8671L63.0674 85.5612C61.644 86.0441 59.3311 86.0441 57.9332 85.5612L49.8253 82.8671C46.7753 81.8504 44.2845 78.3937 44.2845 75.1658V71.8616C44.2845 69.8537 46.5212 68.6337 48.1987 69.7266L53.4345 73.1325C55.4424 74.4796 57.984 75.1404 60.5257 75.1404C63.0674 75.1404 65.609 74.4796 67.6169 73.1325L72.7765 69.7521Z" fill="#288EFF"/>
<path d="M80.7825 46.4206L65.5579 36.4318C62.8129 34.6272 58.2887 34.6272 55.5437 36.4318L40.243 46.4206C35.3375 49.5976 35.3375 56.7904 40.243 59.9929L44.3096 62.6363L55.5437 69.9563C58.2887 71.7608 62.8129 71.7608 65.5579 69.9563L76.7158 62.6363L80.1979 60.3488V68.1263C80.1979 69.1683 81.0621 70.0325 82.1042 70.0325C83.1463 70.0325 84.0104 69.1683 84.0104 68.1263V55.6213C85.0271 52.3426 83.985 48.5301 80.7825 46.4206Z" fill="#288EFF"/>
</g>
</g>
<defs>
<clipPath id="clip0_100_6">
<rect width="61" height="61" fill="white" transform="translate(30 30)"/>
</clipPath>
</defs>
</svg>
