<svg width="93" height="93" viewBox="0 0 93 93" fill="none" xmlns="http://www.w3.org/2000/svg">
<circle cx="46.5" cy="46.5" r="44" stroke="#288EFF" stroke-width="5"/>
<g clip-path="url(#clip0_100_10)">
<mask id="mask0_100_10" style="mask-type:luminance" maskUnits="userSpaceOnUse" x="26" y="26" width="41" height="41">
<path d="M67 26H26V67H67V26Z" fill="white"/>
</mask>
<g mask="url(#mask0_100_10)">
<path d="M38.3171 35.6689C37.6167 35.6689 37.0359 35.0881 37.0359 34.3877V29.2627C37.0359 28.5623 37.6167 27.9814 38.3171 27.9814C39.0176 27.9814 39.5984 28.5623 39.5984 29.2627V34.3877C39.5984 35.0881 39.0176 35.6689 38.3171 35.6689Z" fill="#288EFF"/>
<path d="M51.9838 35.6689C51.2833 35.6689 50.7025 35.0881 50.7025 34.3877V29.2627C50.7025 28.5623 51.2833 27.9814 51.9838 27.9814C52.6842 27.9814 53.265 28.5623 53.265 29.2627V34.3877C53.265 35.0881 52.6842 35.6689 51.9838 35.6689Z" fill="#288EFF"/>
<path d="M52.7525 61.6527L51.0783 61.1915C50.1046 60.9181 49.4383 60.064 49.4383 59.0219C49.4383 57.9798 50.0875 57.1256 51.1125 56.8352L52.7525 56.4081C53.6238 56.1519 54.2558 55.5198 54.495 54.6656L54.9392 53.0427L55.0417 52.7523C55.3663 51.8981 56.1862 51.3344 57.1258 51.3344C58.0825 51.3344 58.8513 51.9152 59.1758 52.7694L59.7054 54.6827C59.8421 55.1952 60.2179 55.5709 60.6108 55.8955C60.6108 50.5316 60.6108 45.1922 60.6108 39.8202C60.6108 35.3785 57.0063 31.7568 52.5475 31.7568H37.9071C33.4654 31.7568 29.8438 35.3614 29.8438 39.8202V55.3319C29.8438 59.7736 33.4483 63.3952 37.9071 63.3952H52.5475C53.1796 63.3952 53.7946 63.3098 54.3925 63.1561C54.1021 62.4386 53.5212 61.8748 52.7525 61.6698V61.6527ZM45.2358 53.2306C44.3133 54.1531 43.3225 54.2386 42.4513 53.7773L41.6654 54.5802C41.2896 54.939 40.76 55.0415 40.2817 54.8877C40.2475 54.939 40.2133 54.9731 40.1792 55.0073L38.0096 57.1769C37.7533 57.4331 37.4288 57.5527 37.1042 57.5527C36.7796 57.5527 36.455 57.4331 36.1988 57.1769C35.7033 56.6815 35.7033 55.8615 36.1988 55.3661L38.3683 53.1965C38.3683 53.1965 38.4367 53.1281 38.4879 53.1111C38.3171 52.6327 38.4367 52.0861 38.7954 51.7102L39.5983 50.9244C39.325 50.4119 39.2567 49.8481 39.4275 49.2844C39.53 48.9086 39.7863 48.5156 40.145 48.1398L41.9046 46.3802L44.5525 43.7494L43.8179 43.0148C43.3225 42.5193 43.3225 41.7164 43.8179 41.2039C44.3133 40.7085 45.1333 40.7085 45.6287 41.2039L47.4567 43.0318L48.5329 41.9385L47.4396 40.8452C46.9442 40.3498 46.9442 39.5298 47.4396 39.0343C47.9521 38.5389 48.755 38.5389 49.2504 39.0343L54.3413 44.1252C54.8367 44.6206 54.8367 45.4236 54.3413 45.9361C54.085 46.1752 53.7604 46.3119 53.4358 46.3119C53.1112 46.3119 52.7867 46.1752 52.5304 45.9361L51.4371 44.8427L50.3608 45.9361L52.1717 47.7469C52.6671 48.2423 52.6671 49.0623 52.1717 49.5577C51.9154 49.814 51.5908 49.9336 51.2663 49.9336C50.9246 49.9336 50.6 49.814 50.3608 49.5577L49.6433 48.8402L46.9954 51.4711L45.2358 53.2306Z" fill="#288EFF"/>
<path d="M63.1049 59.0558C63.1049 59.1754 63.0366 59.4487 62.712 59.5512L61.0379 60.0125C59.5858 60.4054 58.4924 61.4987 58.0995 62.9508L57.6554 64.5908C57.5529 64.9666 57.2624 65.0008 57.1258 65.0008C56.9891 65.0008 56.6987 64.9666 56.5962 64.5908L56.152 62.9337C55.7591 61.4987 54.6487 60.4054 53.2137 60.0125L51.5566 59.5683C51.1979 59.4658 51.1637 59.1583 51.1637 59.0387C51.1637 58.9021 51.1979 58.5946 51.5566 58.4921L53.2308 58.0479C54.6658 57.6379 55.7591 56.5446 56.152 55.1096L56.6304 53.3671C56.7499 53.0766 57.0233 53.0254 57.1258 53.0254C57.2283 53.0254 57.5187 53.0596 57.6212 53.3329L58.0995 55.0925C58.4924 56.5275 59.6029 57.6208 61.0379 58.0308L62.7462 58.5091C63.0879 58.6458 63.1049 58.9533 63.1049 59.0558Z" fill="#288EFF"/>
</g>
</g>
<defs>
<clipPath id="clip0_100_10">
<rect width="41" height="41" fill="white" transform="translate(26 26)"/>
</clipPath>
</defs>
</svg>
