<svg width="119" height="119" viewBox="0 0 119 119" fill="none" xmlns="http://www.w3.org/2000/svg">
<circle cx="59.5" cy="59.5" r="57" stroke="#288EFF" stroke-width="5"/>
<g clip-path="url(#clip0_100_8)">
<mask id="mask0_100_8" style="mask-type:luminance" maskUnits="userSpaceOnUse" x="27" y="27" width="65" height="65">
<path d="M92 27H27V92H92V27Z" fill="white"/>
</mask>
<g mask="url(#mask0_100_8)">
<path d="M83.8479 53.298C82.9271 52.9188 81.7083 52.7292 80.1917 52.7292H65.8917C61.1792 52.7292 59.5 54.4084 59.5 59.1751V80.1376C59.5 81.7084 59.6896 82.9272 60.0958 83.8751C60.9354 85.8251 62.7229 86.5834 65.8917 86.5834H80.1917C84.9042 86.5834 86.5833 84.8772 86.5833 80.1376V59.1751C86.5833 55.9522 85.825 54.1376 83.8479 53.298ZM75.75 80.4897H70.3333C70.2792 80.4897 70.1979 80.4897 70.1438 80.4626C69.7375 80.4355 69.3854 80.3001 69.0875 80.0292C68.6 79.6772 68.3021 79.1084 68.3021 78.4584C68.3021 77.348 69.2229 76.4272 70.3333 76.4272H75.75C76.8604 76.4272 77.7812 77.348 77.7812 78.4584C77.7812 79.5688 76.8604 80.4897 75.75 80.4897Z" fill="#288EFF"/>
<path d="M83.8479 43.7647V45.9584C83.8479 47.448 82.6292 48.6667 81.1396 48.6667H65.8917C58.9583 48.6667 55.4375 52.2147 55.4375 59.1751V83.8751C55.4375 85.3647 54.2188 86.5834 52.7292 86.5834H47.448C46.3646 86.5834 45.498 85.7167 45.498 84.6605C45.498 83.5772 46.3646 82.7376 47.448 82.7376H52.7292V72.3647H43.25C37.2375 72.0667 32.4438 67.1105 32.4438 61.0167V43.7647C32.4438 37.5084 37.5355 32.4167 43.8188 32.4167H72.5C78.7563 32.4167 83.8479 37.5084 83.8479 43.7647Z" fill="#288EFF"/>
</g>
</g>
<defs>
<clipPath id="clip0_100_8">
<rect width="65" height="65" fill="white" transform="translate(27 27)"/>
</clipPath>
</defs>
</svg>
