<svg width="93" height="93" viewBox="0 0 93 93" fill="none" xmlns="http://www.w3.org/2000/svg">
<circle cx="46.5" cy="46.5" r="44" stroke="#288EFF" stroke-width="5"/>
<g clip-path="url(#clip0_100_4)">
<mask id="mask0_100_4" style="mask-type:luminance" maskUnits="userSpaceOnUse" x="28" y="28" width="38" height="38">
<path d="M66 28H28V66H66V28Z" fill="white"/>
</mask>
<g mask="url(#mask0_100_4)">
<path d="M45.8125 37.5V59.5242C45.8125 60.6484 44.6725 61.4242 43.6433 60.9967C40.6983 59.7617 37.0408 58.6851 34.4442 58.3367L33.9533 58.2734C32.4175 58.0834 31.1667 56.6742 31.1667 55.1384V36.3125C31.1667 34.4125 32.7025 32.8767 34.6025 32.8767H34.7133C37.69 33.13 42.0758 34.5234 44.9733 36.0909C45.4958 36.3759 45.8125 36.8984 45.8125 37.5Z" fill="#288EFF"/>
<path d="M59.3975 32.8767H59.3025C58.9225 32.9084 58.5108 32.9559 58.0833 33.035C56.1358 33.3517 53.8242 34.0167 51.75 34.84C50.7683 35.2359 49.85 35.6634 49.0425 36.0909C48.52 36.3759 48.1875 36.9142 48.1875 37.5V59.5242C48.1875 60.6484 49.3275 61.4242 50.3567 60.9967C53.3017 59.7617 56.9592 58.6851 59.5558 58.3367L60.0467 58.2734C61.5825 58.0834 62.8333 56.6742 62.8333 55.1384V36.3125C62.8333 34.4125 61.2975 32.8767 59.3975 32.8767ZM58.5108 49.7392C58.5108 50.3567 58.0675 50.6259 57.5292 50.3251L55.8508 49.3909C55.6767 49.2959 55.3917 49.2959 55.2017 49.3909L53.5233 50.3251C52.985 50.6259 52.5417 50.3567 52.5417 49.7392V44.8784C52.5417 44.1501 53.1433 43.5484 53.8717 43.5484H57.1967C57.925 43.5484 58.5267 44.1501 58.5267 44.8784V49.7392H58.5108Z" fill="#288EFF"/>
</g>
</g>
<defs>
<clipPath id="clip0_100_4">
<rect width="38" height="38" fill="white" transform="translate(28 28)"/>
</clipPath>
</defs>
</svg>
