<svg width="20" height="20" viewBox="0 0 20 20" fill="none" xmlns="http://www.w3.org/2000/svg">
<path d="M9.67831 18.8566C14.7473 18.8566 18.8566 14.7473 18.8566 9.67831C18.8566 4.60927 14.7473 0.5 9.67831 0.5C4.60927 0.5 0.5 4.60927 0.5 9.67831C0.5 14.7473 4.60927 18.8566 9.67831 18.8566Z" stroke="black" stroke-linecap="round" stroke-linejoin="round"/>
<path d="M6.00696 1.41783H6.92479C5.13502 6.77797 5.13502 12.5787 6.92479 17.9388H6.00696" stroke="black" stroke-linecap="round" stroke-linejoin="round"/>
<path d="M12.4318 1.41783C14.2216 6.77797 14.2216 12.5787 12.4318 17.9388" stroke="black" stroke-linecap="round" stroke-linejoin="round"/>
<path d="M1.41782 13.3496V12.4318C6.77795 14.2216 12.5786 14.2216 17.9388 12.4318V13.3496" stroke="black" stroke-linecap="round" stroke-linejoin="round"/>
<path d="M1.41782 6.92446C6.77795 5.13469 12.5786 5.13469 17.9388 6.92446" stroke="black" stroke-linecap="round" stroke-linejoin="round"/>
</svg>
