<svg width="89" height="68" viewBox="0 0 89 68" fill="none" xmlns="http://www.w3.org/2000/svg">
<path d="M75.65 0C83.023 0 89 6.08893 89 13.6V54.4C89 61.9111 83.023 68 75.65 68H13.35C5.977 68 1.07512e-07 61.9111 0 54.4V13.6C0 6.08893 5.977 2.92062e-07 13.35 0H75.65ZM75.4327 14.8839C74.9007 13.7559 73.5678 13.2798 72.4603 13.8214L45.6125 26.9477L18.7647 13.8214C17.6572 13.2798 16.3243 13.7559 15.7923 14.8839C15.2607 16.0121 15.728 17.37 16.8353 17.912L44.6478 31.512C45.2564 31.8096 45.9686 31.8096 46.5772 31.512L74.3897 17.912C75.497 17.37 75.9643 16.0121 75.4327 14.8839Z" fill="#288EFF"/>
</svg>
